<?xml version="1.0" standalone="no"?>
<!DOCTYPE svg PUBLIC "-//W3C//DTD SVG 20010904//EN"
 "http://www.w3.org/TR/2001/REC-SVG-20010904/DTD/svg10.dtd">
<svg version="1.0" xmlns="http://www.w3.org/2000/svg"
 width="800.000000pt" height="1091.000000pt" viewBox="0 0 800.000000 1091.000000"
 preserveAspectRatio="xMidYMid meet">

<g transform="translate(0.000000,1091.000000) scale(0.100000,-0.100000)"
fill="#000000" stroke="none">
<path d="M5005 8284 c-87 -9 -244 -36 -320 -54 -95 -23 -332 -99 -395 -127
-25 -11 -70 -31 -100 -44 -30 -12 -62 -29 -71 -36 -8 -7 -21 -13 -29 -13 -7 0
-36 -13 -64 -29 -28 -16 -85 -47 -126 -68 -178 -93 -557 -353 -544 -374 3 -5
-2 -6 -11 -3 -13 5 -14 2 -5 -22 11 -27 10 -27 -8 -11 -18 17 -21 15 -65 -24
-26 -22 -44 -46 -40 -52 4 -6 0 -8 -10 -4 -9 3 -21 -1 -29 -11 -9 -11 -9 -14
-1 -8 9 5 11 2 7 -9 -4 -9 -13 -14 -21 -11 -8 3 -17 -2 -20 -12 -10 -24 -26
-39 -40 -35 -6 2 -15 -1 -19 -8 -5 -8 -3 -10 7 -5 8 4 2 -4 -13 -17 -15 -14
-24 -29 -20 -33 4 -5 -3 0 -15 10 -17 14 -23 15 -23 5 0 -7 -17 -31 -37 -54
-32 -33 -32 -35 -5 -11 17 17 32 26 32 22 0 -3 -51 -58 -112 -120 -62 -63
-142 -146 -178 -186 -36 -39 -74 -81 -85 -94 -66 -72 -113 -134 -107 -141 4
-5 3 -6 -3 -3 -10 6 -32 -11 -31 -23 2 -12 -49 -77 -56 -73 -4 3 -10 -7 -14
-21 -3 -14 -12 -25 -20 -25 -8 0 -14 -6 -14 -14 0 -7 -13 -29 -30 -47 -16 -19
-30 -40 -30 -48 0 -8 -3 -12 -6 -8 -4 3 -14 -8 -24 -26 -41 -77 -49 -90 -79
-122 -17 -19 -37 -47 -43 -62 -18 -41 -44 -73 -53 -65 -5 4 -5 1 0 -7 5 -9 2
-18 -7 -25 -8 -6 -41 -62 -73 -124 -32 -61 -61 -112 -65 -112 -4 0 -10 -13
-14 -30 -3 -16 -9 -43 -12 -60 -3 -16 -10 -27 -15 -24 -5 3 -9 0 -9 -6 0 -7
-9 -23 -20 -37 -11 -14 -20 -37 -20 -52 0 -14 -7 -35 -15 -45 -8 -11 -15 -28
-15 -39 0 -28 -31 -117 -41 -117 -5 0 -9 -7 -9 -15 0 -8 -5 -15 -11 -15 -8 0
-8 -4 0 -14 10 -12 7 -18 -18 -31 -56 -29 -32 -24 55 12 85 35 194 55 194 36
0 -8 -39 -32 -62 -39 -5 -1 -11 -3 -15 -4 -5 -1 -11 -2 -15 -1 -5 0 -8 -4 -8
-10 0 -5 -4 -8 -9 -5 -5 3 -17 -6 -27 -19 -10 -14 -25 -25 -32 -25 -7 0 -11
-4 -8 -9 3 -5 -1 -11 -9 -15 -8 -3 -15 -10 -15 -16 0 -6 -12 -29 -26 -51 -14
-23 -27 -60 -28 -82 -2 -23 -8 -41 -14 -40 -7 2 -8 -7 -2 -27 6 -19 5 -29 -2
-27 -13 3 -18 -52 -6 -75 5 -10 4 -19 -3 -23 -6 -4 -8 -14 -4 -22 3 -9 -2 -27
-10 -40 -14 -21 -14 -24 0 -29 8 -3 12 -10 9 -15 -9 -16 -12 -119 -3 -113 5 2
2 -13 -6 -36 -8 -22 -10 -40 -6 -40 5 0 11 -11 13 -25 4 -20 3 -23 -8 -14 -8
6 -12 14 -11 18 2 3 -7 17 -20 31 -20 20 -23 21 -17 5 5 -11 14 -26 21 -33 16
-16 17 -29 3 -37 -5 -3 -10 -10 -10 -16 0 -5 5 -9 10 -9 6 0 10 8 10 17 0 14
3 14 12 5 10 -10 10 -15 -2 -23 -8 -5 -22 -8 -30 -6 -9 2 -21 -2 -29 -10 -10
-12 -8 -13 13 -7 17 4 26 2 26 -6 0 -6 -6 -8 -12 -5 -7 4 -4 -1 6 -9 20 -16
19 -16 -1 -16 -12 0 -24 6 -27 13 -3 6 -3 2 0 -10 3 -13 1 -23 -4 -23 -10 0
-23 52 -18 72 1 7 1 10 -1 7 -2 -3 -20 -5 -41 -3 -20 2 -30 0 -22 -3 19 -7 30
-23 30 -43 0 -10 -7 -7 -20 10 -11 14 -20 21 -20 15 -1 -5 -6 1 -11 14 -5 13
-12 22 -14 19 -3 -3 -1 -17 4 -32 7 -17 7 -26 1 -26 -6 0 -10 6 -10 14 0 8 -5
18 -12 22 -8 5 -9 0 -6 -14 4 -12 2 -20 -3 -16 -11 6 -12 41 -1 47 4 2 1 2 -7
0 -9 -2 -11 2 -7 13 5 13 3 14 -6 6 -9 -7 -20 -6 -38 3 -14 8 -19 14 -12 15
17 0 15 15 -4 34 -8 9 -11 16 -6 16 5 0 12 11 14 25 3 13 2 22 -2 20 -5 -3
-11 2 -14 11 -5 12 -2 15 11 10 17 -6 17 -5 1 7 -10 8 -15 16 -13 19 3 3 -1
11 -10 18 -15 13 -22 65 -7 56 5 -3 9 0 10 7 0 7 3 38 6 70 3 36 1 57 -5 57
-6 0 1 20 15 44 14 25 26 51 26 60 0 8 11 28 25 44 31 36 32 48 4 28 -12 -8
-27 -12 -34 -10 -20 8 -87 -30 -129 -73 -49 -50 -91 -136 -113 -231 -14 -60
-18 -119 -18 -262 0 -102 3 -212 6 -245 6 -53 6 -56 -4 -22 -11 37 -27 50 -27
22 0 -9 -8 -18 -17 -22 -10 -3 -28 -15 -40 -26 -12 -10 -26 -16 -31 -13 -5 3
-20 -8 -32 -24 -13 -17 -31 -30 -41 -30 -9 0 -19 -5 -21 -12 -2 -6 -11 -12
-20 -14 -19 -2 -27 40 -38 201 -4 61 -8 86 -8 58 -1 -29 -5 -53 -10 -53 -4 0
-13 -26 -19 -57 -7 -32 -17 -76 -22 -98 -50 -205 -71 -310 -93 -465 -25 -176
20 -378 142 -637 135 -287 358 -565 575 -718 39 -27 76 -55 83 -62 7 -7 24
-16 37 -19 13 -3 26 -12 29 -20 3 -8 12 -14 21 -14 8 0 15 -3 15 -7 0 -5 28
-21 63 -38 34 -16 63 -33 65 -37 2 -4 20 -12 40 -19 20 -6 49 -20 64 -30 14
-11 31 -19 37 -19 6 0 46 -22 89 -49 152 -95 283 -146 403 -157 89 -9 133 4
289 81 69 34 141 68 160 75 65 25 164 105 153 124 -3 5 -1 6 4 3 13 -8 74 13
175 60 l78 36 87 -84 c127 -122 224 -183 388 -242 184 -66 432 -81 633 -38
155 33 359 114 502 200 152 92 256 156 260 160 3 4 32 26 65 51 175 130 364
317 467 461 82 114 155 258 203 399 20 58 50 143 66 190 56 159 88 296 125
530 33 209 38 272 30 372 l-8 86 -40 6 c-155 25 -433 263 -514 441 -31 66 -36
151 -11 170 9 7 17 17 17 24 0 6 10 21 21 32 15 15 18 23 9 29 -8 5 -7 9 4 13
9 4 16 16 16 27 0 12 5 18 10 15 6 -3 10 3 10 14 0 20 35 91 49 101 4 3 19 28
33 57 14 29 28 50 31 47 3 -3 10 3 16 14 6 11 7 22 4 26 -3 3 1 6 11 6 13 0
16 5 11 21 -7 20 -4 19 33 -7 22 -16 120 -99 219 -185 323 -281 403 -349 412
-349 20 0 155 315 234 545 79 230 131 445 163 675 21 150 24 476 5 595 -30
199 -64 316 -102 357 -16 18 -29 38 -29 45 0 7 -5 13 -10 13 -6 0 -14 8 -18
18 -13 30 -54 92 -61 92 -3 0 -12 10 -19 23 -7 12 19 -11 58 -51 80 -82 80
-69 -1 23 -72 83 -245 263 -234 245 8 -13 6 -13 -8 -1 -9 7 -15 17 -12 21 6
10 -33 50 -50 50 -8 0 -15 5 -15 11 0 5 6 7 13 3 7 -4 9 -3 4 2 -5 5 -13 10
-18 10 -5 1 -13 2 -19 3 -5 0 -10 8 -10 16 0 8 -12 21 -27 29 -16 8 -39 25
-51 39 -13 14 -37 31 -52 37 -17 7 -43 35 -65 72 -60 96 -149 201 -222 260
-37 30 -75 58 -83 62 -8 4 -1 -3 15 -15 67 -52 157 -145 203 -213 54 -77 127
-216 115 -216 -5 0 -26 -17 -48 -38 -21 -20 -36 -30 -33 -21 3 8 -3 26 -13 40
-10 13 -19 30 -19 37 0 14 -26 58 -52 86 -22 24 -22 26 -2 54 15 21 15 25 -2
43 -9 10 -23 19 -31 19 -7 0 -14 5 -14 10 -1 6 -2 14 -3 18 -3 20 -67 81 -140
134 -176 129 -383 194 -642 202 -82 2 -167 2 -189 0z m1208 -626 c18 -43 63
-225 77 -308 18 -112 24 -357 11 -485 -39 -403 -164 -831 -370 -1269 l-52
-110 -25 26 -26 25 45 94 c24 52 51 110 60 129 28 64 103 264 121 325 10 33
24 74 31 90 11 27 31 100 57 210 9 39 34 179 58 325 7 41 14 154 17 250 6 198
-13 410 -49 527 -11 38 -22 78 -25 91 -3 12 -9 22 -15 22 -13 0 5 31 38 63 14
15 28 27 30 27 2 0 10 -15 17 -32z m-258 -58 c3 -11 11 -20 17 -20 5 0 8 7 4
15 -10 27 1 16 43 -45 22 -33 41 -71 41 -83 0 -12 8 -30 19 -38 23 -20 56
-143 76 -280 51 -362 -40 -896 -230 -1349 -61 -144 -113 -252 -125 -260 -9 -6
-170 -311 -170 -322 0 -4 -8 -12 -19 -17 -14 -8 -45 -1 -130 31 -61 23 -111
46 -111 51 0 5 -10 20 -22 32 -13 12 -42 43 -66 69 -24 25 -49 47 -57 47 -28
3 -33 4 -41 12 -14 13 22 7 92 -17 38 -13 125 -51 194 -86 l125 -63 -65 66
c-36 37 -84 76 -107 88 -24 12 -43 26 -43 31 0 4 -7 8 -15 8 -8 0 -15 5 -15
12 0 6 -3 9 -6 5 -6 -5 -15 0 -49 31 -8 7 -17 12 -20 12 -3 0 -19 7 -35 15
-17 9 -35 13 -40 10 -5 -3 -7 0 -4 8 4 11 -2 14 -20 12 -14 -2 -26 1 -26 6 0
6 -4 8 -8 5 -5 -3 -20 1 -35 9 -15 8 -27 11 -27 8 0 -3 -6 0 -14 6 -11 9 -15
9 -19 -1 -3 -8 -6 -6 -6 6 -1 12 -6 16 -16 12 -8 -3 -15 -2 -15 3 0 4 -6 8
-12 9 -39 3 -58 7 -58 12 0 21 -355 18 -460 -3 -147 -31 -303 -83 -294 -98 3
-6 10 -6 17 -1 19 14 78 32 72 22 -4 -6 -1 -10 5 -10 6 0 8 -5 4 -12 -5 -7 -3
-8 5 -4 7 5 10 14 7 22 -4 11 0 11 20 2 14 -7 23 -17 20 -25 -3 -7 2 -17 12
-22 13 -7 11 -9 -11 -8 -24 2 -27 5 -22 27 4 21 4 22 -5 7 -14 -22 -3 -60 13
-50 7 4 5 -1 -3 -12 -8 -10 -16 -28 -17 -39 -2 -34 -8 -55 -18 -63 -4 -4 -5
-2 -1 5 4 6 2 12 -4 12 -6 0 -8 5 -3 13 14 22 12 36 -5 30 -14 -5 -14 -3 2 15
11 12 17 24 14 27 -3 3 -12 -5 -21 -19 -9 -13 -13 -27 -9 -31 4 -4 7 -19 8
-35 0 -19 -4 -26 -13 -23 -7 3 -13 13 -14 22 0 10 -2 11 -6 3 -2 -6 -9 -10
-13 -7 -5 3 -12 0 -16 -6 -4 -8 -3 -9 4 -5 7 4 12 3 12 -2 0 -5 -11 -9 -25 -9
-26 0 -34 12 -12 20 7 3 8 6 1 6 -6 1 -23 -11 -38 -25 -23 -24 -26 -25 -27 -8
0 14 -2 15 -6 4 -14 -44 -16 -45 -23 -20 -8 24 -8 24 -9 3 -1 -25 -16 -31 -25
-10 -3 6 -3 0 0 -15 4 -18 2 -28 -6 -28 -6 0 -9 4 -6 8 3 5 -1 9 -8 9 -8 0
-11 -8 -9 -18 3 -9 0 -20 -6 -23 -6 -4 -11 -2 -11 4 0 6 -4 8 -10 5 -5 -3 -10
-16 -10 -28 0 -28 -28 -69 -41 -62 -9 6 -13 -12 -11 -45 0 -12 -2 -11 -12 3
-15 19 -31 24 -20 5 5 -8 0 -9 -14 -6 -12 4 -22 2 -22 -3 0 -5 -11 -4 -26 1
-16 7 -23 7 -19 0 6 -10 -4 -13 -40 -11 -11 0 -14 -2 -7 -5 18 -8 4 -24 -15
-17 -10 4 -14 2 -10 -4 7 -11 -19 -26 -32 -19 -4 3 -6 -9 -4 -27 3 -26 1 -28
-6 -12 -10 20 -15 8 -12 -25 2 -12 0 -12 -7 -1 -7 9 -12 10 -16 2 -4 -6 -13
-9 -19 -5 -7 3 -3 -2 7 -10 19 -15 19 -16 -10 -16 -22 0 -26 -3 -14 -10 8 -5
12 -10 8 -10 -3 0 -14 -3 -24 -7 -12 -4 -15 -3 -10 5 4 8 2 10 -8 6 -9 -3 -12
-12 -9 -22 5 -14 2 -13 -17 3 l-23 20 12 -22 c7 -13 8 -23 2 -23 -5 0 -12 6
-14 13 -3 7 -6 5 -6 -5 -1 -10 -7 -17 -13 -15 -7 1 -12 -4 -10 -12 2 -8 -3
-11 -12 -8 -11 4 -13 1 -9 -11 6 -15 5 -16 -12 -2 -16 14 -17 13 -11 -8 6 -18
4 -21 -10 -15 -12 4 -15 3 -10 -5 4 -7 1 -12 -9 -12 -9 0 -13 -4 -10 -10 3 -5
0 -10 -7 -10 -10 0 -10 -2 1 -9 8 -5 9 -11 3 -15 -6 -4 -15 2 -21 11 -5 10
-12 15 -15 12 -3 -3 3 -15 14 -27 25 -26 19 -28 -15 -6 -14 9 -25 12 -25 8 0
-5 9 -15 20 -22 11 -7 20 -17 20 -23 0 -6 -7 -3 -16 5 -19 19 -28 21 -21 3 2
-6 -2 -18 -9 -25 -8 -7 -14 -8 -14 -3 0 6 -7 8 -16 4 -13 -5 -13 -8 -2 -15 9
-7 7 -8 -9 -5 -15 3 -23 0 -23 -8 0 -17 -43 -32 -48 -16 -4 13 -58 15 -66 2
-3 -4 5 -6 17 -4 23 5 81 -20 71 -30 -7 -6 -36 3 -44 13 -3 4 -14 4 -25 -1
-15 -6 -16 -8 -4 -8 9 -1 23 -8 30 -18 13 -15 12 -15 -7 -5 -13 7 -24 8 -31 1
-6 -6 -16 -4 -29 6 -13 11 -14 14 -4 13 11 -2 14 5 12 25 -1 15 2 27 8 27 5 0
10 7 10 16 0 9 5 12 12 8 7 -5 9 -2 6 8 -7 17 26 50 38 40 4 -4 4 -1 0 6 -9
16 65 113 82 107 7 -3 10 0 7 6 -4 5 -1 18 5 27 41 57 -85 -91 -148 -175 -67
-91 -97 -122 -89 -94 4 16 -84 141 -99 141 -8 0 -13 4 -10 9 5 8 -24 53 -56
85 -10 10 -18 20 -18 24 0 13 -58 72 -69 72 -7 0 -10 4 -7 8 3 5 -12 25 -34
44 -21 20 -36 39 -33 42 4 3 2 6 -4 6 -9 0 -27 14 -110 90 -12 11 -27 20 -33
20 -6 0 -8 5 -5 10 3 6 -1 10 -9 10 -9 0 -16 5 -16 10 0 6 -6 10 -13 10 -19 0
-58 35 -50 44 4 4 0 4 -10 0 -11 -4 -19 0 -23 9 -3 9 -12 13 -20 10 -27 -10
-14 22 13 34 16 7 33 23 39 35 56 116 389 603 523 764 14 18 42 51 61 75 114
142 315 350 493 511 504 458 984 723 1498 828 268 55 626 52 814 -7 16 -5 18
-3 9 8 -20 25 -24 49 -9 49 7 0 17 -9 20 -20z m-2635 -100 c0 -5 -5 -10 -11
-10 -5 0 -7 5 -4 10 3 6 8 10 11 10 2 0 4 -4 4 -10z m-35 -30 c3 -5 1 -10 -4
-10 -6 0 -11 5 -11 10 0 6 2 10 4 10 3 0 8 -4 11 -10z m3336 -107 c13 -16 12
-17 -3 -4 -10 7 -18 15 -18 17 0 8 8 3 21 -13z m-3571 -113 c10 -19 10 -20 -9
-8 -11 6 -17 16 -15 20 8 12 12 10 24 -12z m1330 -1694 c0 -2 -7 -7 -16 -10
-8 -3 -12 -2 -9 4 6 10 25 14 25 6z m-4 -74 c-17 -16 -18 -16 -5 5 7 12 15 20
18 17 3 -2 -3 -12 -13 -22z m-37 -23 c-9 -17 -13 -19 -20 -8 -5 8 -3 16 4 21
22 14 28 8 16 -13z m824 -6 c-7 -2 -21 -2 -30 0 -10 3 -4 5 12 5 17 0 24 -2
18 -5z m-841 -55 c-8 -8 -9 -4 -5 13 4 13 8 18 11 10 2 -7 -1 -18 -6 -23z
m143 -8 c4 -6 11 -7 17 -4 7 4 8 2 4 -5 -4 -6 -12 -9 -17 -6 -5 4 -9 1 -9 -4
0 -6 -6 -11 -14 -11 -7 0 -27 -7 -42 -15 -42 -22 -22 -18 63 11 54 19 78 23
86 15 8 -8 7 -11 -3 -11 -11 -1 -10 -5 4 -15 11 -8 16 -15 11 -15 -4 0 2 -9
15 -20 13 -11 26 -20 30 -20 4 0 10 -9 13 -21 3 -11 15 -23 27 -26 35 -9 18
-26 -78 -75 -306 -155 -478 -282 -717 -528 -45 -47 -102 -108 -126 -137 -24
-28 -48 -52 -52 -52 -10 -1 32 71 61 103 92 106 113 139 110 169 -2 20 -9 33
-20 35 -12 2 -15 -2 -11 -16 5 -21 -105 -155 -120 -145 -5 3 -4 10 2 16 6 6
11 16 11 21 0 6 -5 5 -11 -1 -6 -6 -18 -9 -26 -6 -12 5 -14 1 -9 -15 4 -11 2
-23 -4 -27 -5 -3 -10 -11 -10 -17 0 -6 9 -3 20 7 35 31 22 2 -26 -57 -48 -61
-68 -71 -77 -39 -5 19 -47 27 -47 9 0 -13 18 -18 23 -6 3 7 6 3 6 -9 1 -28
-13 -30 -32 -3 -8 11 -17 17 -22 12 -4 -4 -2 3 4 16 9 16 9 22 0 22 -8 0 -7 5
2 17 10 11 10 14 2 9 -7 -4 -13 -4 -13 0 0 19 156 210 260 318 63 66 102 111
85 99 -30 -21 -135 -128 -187 -191 -17 -20 -33 -30 -39 -26 -7 4 -9 3 -5 -4
10 -16 -42 -72 -62 -66 -14 5 -14 4 -3 -4 12 -9 12 -12 -1 -26 -21 -21 -27
-11 -18 30 10 45 16 50 37 33 16 -13 17 -12 4 3 -12 16 -9 23 21 61 133 162
331 341 497 449 96 62 245 142 281 150 8 2 18 7 22 12 4 6 13 4 22 -4 14 -11
16 -10 10 4 -5 12 0 16 19 16 14 0 29 -5 32 -10z m-3004 -255 c-86 -98 -128
-291 -119 -550 3 -74 1 -135 -4 -135 -4 0 -8 7 -8 15 0 9 -9 15 -22 15 -19 0
-20 2 -8 11 12 8 12 10 1 7 -18 -5 -23 -38 -9 -55 14 -17 1 -30 -14 -15 -7 7
-11 72 -11 194 -1 160 2 193 21 261 32 111 72 185 131 240 59 55 87 63 42 12z
m299 -215 c0 -5 -5 -10 -11 -10 -5 0 -7 5 -4 10 3 6 8 10 11 10 2 0 4 -4 4
-10z m1647 -186 c-3 -3 -12 -4 -19 -1 -8 3 -5 6 6 6 11 1 17 -2 13 -5z m101
-84 c-1 -24 -4 -28 -15 -19 -14 13 -16 9 -7 -15 3 -9 10 -13 15 -10 17 10 9
-3 -13 -22 -19 -15 -20 -16 -9 -1 9 11 10 17 2 17 -21 0 -26 -4 -23 -20 3 -11
1 -12 -8 -3 -9 8 -7 18 11 42 12 17 26 31 31 31 4 0 8 7 8 15 0 8 2 15 4 15 3
0 4 -13 4 -30z m-2027 -24 c12 7 39 -14 39 -30 0 -6 -5 -4 -10 4 -5 8 -17 15
-26 15 -10 0 -19 6 -20 13 -1 7 0 8 3 2 2 -5 9 -7 14 -4z m1714 4 c3 -5 2 -10
-4 -10 -5 0 -13 5 -16 10 -3 6 -2 10 4 10 5 0 13 -4 16 -10z m-58 -32 c-3 -8
-6 -5 -6 6 -1 11 2 17 5 13 3 -3 4 -12 1 -19z m-1492 2 c3 -5 1 -10 -4 -10 -6
0 -11 5 -11 10 0 6 2 10 4 10 3 0 8 -4 11 -10z m1515 -15 c-7 -8 -17 -15 -23
-15 -6 0 -2 7 9 15 25 19 30 19 14 0z m-1557 -15 c3 -11 1 -18 -4 -14 -5 3 -9
12 -9 20 0 20 7 17 13 -6z m-43 -13 c17 -4 15 -5 -9 -4 -21 1 -36 8 -39 17 -4
12 -2 13 9 3 8 -6 25 -13 39 -16z m147 -29 c-3 -8 -6 -5 -6 6 -1 11 2 17 5 13
3 -3 4 -12 1 -19z m33 12 c0 -5 -2 -10 -4 -10 -3 0 -8 5 -11 10 -3 6 -1 10 4
10 6 0 11 -4 11 -10z m1746 -15 c-2 -16 -26 -44 -26 -31 0 9 19 46 24 46 3 0
3 -7 2 -15z m-1840 -21 c18 -14 18 -14 -6 -3 -31 14 -36 19 -24 19 6 0 19 -7
30 -16z m-310 -59 c20 -19 23 -25 10 -25 -9 0 -16 5 -16 12 0 6 -3 9 -6 5 -6
-6 -34 16 -34 27 0 13 21 5 46 -19z m2334 -8 c0 -2 -10 -12 -22 -23 l-23 -19
19 23 c18 21 26 27 26 19z m-2310 -56 c0 -20 -3 -22 -9 -11 -6 8 -7 18 -4 24
4 5 -1 7 -10 3 -8 -3 -18 0 -20 7 -4 9 2 11 19 8 18 -3 24 -11 24 -31z m-50 9
c0 -5 -5 -12 -12 -16 -7 -4 -8 -3 -4 4 4 7 2 12 -3 12 -6 0 -11 4 -11 10 0 5
7 7 15 4 8 -4 15 -10 15 -14z m4014 -67 c166 -41 294 -111 390 -213 63 -68
146 -193 146 -221 0 -12 -2 -12 -11 1 -9 13 -10 13 -6 0 2 -8 10 -15 17 -15 7
0 23 -33 38 -80 22 -72 25 -98 25 -250 1 -153 -2 -180 -25 -265 -45 -165 -155
-372 -261 -489 -56 -61 -170 -171 -179 -171 -4 0 -22 -13 -40 -29 -94 -82
-316 -189 -473 -226 -96 -23 -286 -31 -381 -16 -326 53 -561 263 -645 576 -25
93 -30 278 -10 385 86 465 470 872 940 997 153 40 352 47 475 16z"/>
<path d="M4130 5534 c-17 -10 -18 -13 -5 -8 11 3 26 7 33 7 6 0 12 4 12 9 0
12 -11 9 -40 -8z"/>
<path d="M4016 5484 c-37 -19 -66 -37 -64 -39 2 -2 34 11 70 30 36 18 69 31
72 28 3 -4 6 -1 6 5 0 17 -7 15 -84 -24z"/>
<path d="M3925 5430 c-3 -5 -1 -10 4 -10 6 0 11 5 11 10 0 6 -2 10 -4 10 -3 0
-8 -4 -11 -10z"/>
<path d="M3853 5389 c-35 -22 -46 -37 -15 -20 22 13 58 40 52 41 -3 0 -20 -10
-37 -21z"/>
<path d="M3579 5183 l-24 -28 28 24 c25 23 32 31 24 31 -2 0 -14 -12 -28 -27z"/>
<path d="M3494 5108 l-29 -33 33 29 c30 28 37 36 29 36 -2 0 -16 -15 -33 -32z"/>
<path d="M3419 5033 l-34 -37 32 25 c26 20 50 49 40 49 -2 0 -19 -17 -38 -37z"/>
<path d="M3338 4773 c6 -2 18 -2 25 0 6 3 1 5 -13 5 -14 0 -19 -2 -12 -5z"/>
<path d="M3258 4743 c7 -3 16 -2 19 1 4 3 -2 6 -13 5 -11 0 -14 -3 -6 -6z"/>
<path d="M3270 4720 c0 -5 4 -10 9 -10 6 0 13 5 16 10 3 6 -1 10 -9 10 -9 0
-16 -4 -16 -10z"/>
<path d="M4240 5260 c-9 -6 -10 -10 -3 -10 6 0 15 5 18 10 8 12 4 12 -15 0z"/>
<path d="M4035 5124 l-30 -26 33 22 c17 12 32 23 32 26 0 7 -4 5 -35 -22z"/>
<path d="M3979 5083 c-13 -16 -12 -17 4 -4 16 13 21 21 13 21 -2 0 -10 -8 -17
-17z"/>
<path d="M3910 5029 c-27 -25 -33 -33 -15 -21 28 18 73 62 64 62 -2 0 -24 -19
-49 -41z"/>
<path d="M4923 4095 c-173 -40 -335 -130 -479 -267 -197 -189 -300 -402 -311
-643 -9 -202 45 -355 170 -478 121 -121 280 -181 472 -180 211 2 386 62 566
194 164 121 318 340 379 540 30 99 37 259 16 359 -44 212 -195 385 -396 456
-65 23 -94 27 -215 30 -95 2 -160 -1 -202 -11z"/>
<path d="M2910 7165 c-13 -14 -19 -25 -14 -25 12 0 59 50 47 50 -5 0 -20 -11
-33 -25z"/>
<path d="M2844 7098 l-29 -33 35 30 c19 17 37 31 39 33 2 1 0 2 -5 2 -6 0 -23
-15 -40 -32z"/>
<path d="M2766 7014 c-5 -14 -4 -15 9 -4 17 14 19 20 6 20 -5 0 -12 -7 -15
-16z"/>
<path d="M2684 6928 l-19 -23 23 19 c21 18 27 26 19 26 -2 0 -12 -10 -23 -22z"/>
<path d="M2619 6853 l-24 -28 28 24 c25 23 32 31 24 31 -2 0 -14 -12 -28 -27z"/>
<path d="M2554 6778 l-19 -23 23 19 c21 18 27 26 19 26 -2 0 -12 -10 -23 -22z"/>
<path d="M2471 6680 c-23 -27 -39 -50 -34 -50 8 1 88 100 80 100 -2 0 -23 -22
-46 -50z"/>
<path d="M2404 6598 l-19 -23 23 19 c21 18 27 26 19 26 -2 0 -12 -10 -23 -22z"/>
<path d="M2363 6544 c-10 -14 -27 -37 -39 -52 -57 -75 -77 -106 -60 -92 10 8
28 29 40 46 11 17 36 52 54 78 18 25 31 46 28 46 -3 0 -13 -12 -23 -26z"/>
<path d="M2229 6363 c-27 -33 -59 -82 -59 -90 0 -4 14 13 32 38 18 24 37 47
42 51 6 4 8 9 5 13 -3 3 -12 -3 -20 -12z"/>
<path d="M2130 6220 c-12 -17 -20 -35 -18 -40 2 -5 13 8 25 30 25 48 23 52 -7
10z"/>
<path d="M2046 6094 c-21 -31 -36 -58 -33 -60 4 -4 43 51 66 94 21 40 5 23
-33 -34z"/>
<path d="M1940 5924 c-56 -92 -233 -439 -288 -563 -27 -62 -29 -71 -12 -56 11
10 20 24 20 32 0 8 5 11 12 7 7 -4 8 -3 4 4 -4 7 4 35 18 63 15 28 26 55 26
61 0 6 20 45 44 88 24 43 49 95 56 114 6 20 16 36 21 36 5 0 9 8 9 19 0 10 7
24 15 31 8 6 17 22 21 33 3 12 31 64 61 115 30 52 53 96 50 98 -2 2 -28 -35
-57 -82z"/>
<path d="M1720 4799 c0 -5 5 -7 10 -4 6 3 10 8 10 11 0 2 -4 4 -10 4 -5 0 -10
-5 -10 -11z"/>
<path d="M1677 4639 c7 -7 15 -10 18 -7 3 3 -2 9 -12 12 -14 6 -15 5 -6 -5z"/>
</g>
</svg>
