<?xml version="1.0" standalone="no"?>
<!DOCTYPE svg PUBLIC "-//W3C//DTD SVG 20010904//EN"
 "http://www.w3.org/TR/2001/REC-SVG-20010904/DTD/svg10.dtd">
<svg version="1.0" xmlns="http://www.w3.org/2000/svg"
 width="660.000000pt" height="900.000000pt" viewBox="0 0 660.000000 900.000000"
 preserveAspectRatio="xMidYMid meet">

<g transform="translate(0.000000,900.000000) scale(0.100000,-0.100000)"
fill="#000000" stroke="none">
<path d="M3184 8075 c-27 -7 -79 -27 -115 -44 -69 -34 -199 -126 -199 -143 0
-5 23 11 52 36 61 54 170 110 253 131 59 15 219 19 263 7 13 -4 -34 -7 -105
-7 -138 0 -164 -6 -275 -61 -109 -54 -191 -132 -239 -226 -29 -60 -31 -67 -25
-143 4 -43 12 -83 19 -88 9 -6 8 -7 -3 -5 -8 3 -17 15 -21 29 -7 24 -7 24 -8
-3 -1 -17 7 -32 20 -41 12 -9 16 -17 10 -21 -15 -10 -49 51 -57 102 -5 31 -1
61 14 105 20 62 4 56 -20 -8 -8 -22 -26 -37 -67 -57 -299 -144 -306 -551 -12
-695 70 -35 210 -44 281 -19 25 8 48 12 51 8 3 -4 12 -113 18 -242 27 -533 32
-560 97 -620 48 -43 99 -63 164 -63 103 0 189 59 219 150 9 27 15 179 21 535
l8 498 84 82 c103 101 154 194 171 312 33 231 -110 444 -334 495 -62 15 -204
12 -265 -4z m371 -55 c3 -6 -1 -7 -9 -4 -18 7 -21 14 -7 14 6 0 13 -4 16 -10z
m-529 -165 c-51 -54 -76 -125 -76 -213 0 -34 -4 -62 -9 -62 -12 0 -31 56 -31
93 0 36 45 135 72 159 12 10 17 22 12 29 -4 8 -3 9 4 5 7 -4 12 -3 12 2 0 8
36 30 52 31 4 1 -12 -19 -36 -44z m65 -79 c-15 -18 -10 -62 7 -58 6 1 12 -5
12 -14 0 -9 -5 -12 -11 -8 -9 5 -11 -29 -8 -127 2 -74 2 -208 0 -299 -4 -187
-10 -162 -30 120 -17 245 -15 325 11 371 12 21 24 37 26 34 3 -2 -1 -11 -7
-19z m-214 -302 c-3 -3 -12 -4 -19 -1 -8 3 -5 6 6 6 11 1 17 -2 13 -5z"/>
<path d="M4515 7306 c-116 -28 -212 -101 -260 -197 -14 -26 -30 -51 -36 -55
-6 -3 -20 -25 -30 -48 -24 -53 -24 -187 -4 -989 l15 -592 28 -54 c21 -43 38
-60 79 -83 138 -78 304 -27 365 110 19 42 22 75 29 300 5 140 13 338 19 440 5
103 10 196 10 206 0 18 6 19 93 12 121 -8 134 -13 141 -44 15 -63 30 -84 75
-107 170 -86 343 -68 445 45 75 84 132 247 124 355 -7 77 -37 137 -98 195 -80
76 -218 132 -275 110 -20 -8 -27 -6 -31 5 -4 8 -11 12 -17 8 -6 -3 -7 -1 -3 5
9 14 -22 75 -34 67 -5 -3 -12 0 -16 6 -4 8 -3 9 4 5 25 -15 10 12 -36 67 -154
182 -398 279 -587 233z m235 -35 c21 -9 19 -10 -15 -3 -62 11 -206 8 -245 -6
-34 -11 -98 -59 -89 -65 2 -2 14 -10 26 -19 22 -14 21 -15 -35 -27 -31 -7 -74
-21 -95 -32 l-38 -19 18 31 c36 62 130 129 210 149 48 12 230 6 263 -9z m60
-21 c8 -5 11 -10 5 -10 -5 0 -17 5 -25 10 -8 5 -10 10 -5 10 6 0 17 -5 25 -10z
m110 -56 c0 -2 -9 0 -20 6 -11 6 -20 13 -20 16 0 2 9 0 20 -6 11 -6 20 -13 20
-16z m35 -22 c-3 -3 -11 0 -18 7 -9 10 -8 11 6 5 10 -3 15 -9 12 -12z m90 -62
c10 -11 16 -20 13 -20 -3 0 -13 9 -23 20 -10 11 -16 20 -13 20 3 0 13 -9 23
-20z m-518 -237 c-3 -10 -5 -2 -5 17 0 19 2 27 5 18 2 -10 2 -26 0 -35z"/>
<path d="M4319 7153 c-13 -16 -12 -17 4 -4 9 7 17 15 17 17 0 8 -8 3 -21 -13z"/>
<path d="M4773 6333 c15 -2 37 -2 50 0 12 2 0 4 -28 4 -27 0 -38 -2 -22 -4z"/>
<path d="M4135 4550 c-169 -12 -456 -53 -442 -63 8 -6 5 -7 -8 -2 -22 7 -398
-65 -403 -77 -2 -5 -7 -6 -12 -3 -4 3 -57 -6 -117 -20 -159 -37 -193 -47 -193
-56 0 -5 -7 -6 -16 -2 -9 3 -19 1 -23 -5 -3 -6 -19 -13 -34 -16 -62 -11 -129
-35 -123 -45 2 -3 -8 -7 -22 -8 -15 0 -28 -6 -30 -12 -2 -5 -10 -7 -19 -4 -11
4 -14 2 -9 -5 4 -7 1 -13 -6 -13 -7 -1 -20 -2 -28 -3 -8 0 -14 -6 -13 -13 2
-7 -4 -10 -12 -7 -8 4 -15 1 -15 -5 0 -6 -6 -8 -13 -5 -8 3 -20 -2 -27 -11 -7
-8 -33 -24 -57 -35 -29 -13 -42 -24 -37 -31 4 -8 3 -9 -5 -5 -8 5 -46 -26
-105 -86 -77 -77 -101 -109 -139 -185 -25 -50 -51 -116 -57 -145 -11 -50 -15
-55 -56 -72 -61 -25 -110 -84 -130 -154 l-16 -58 -85 -13 c-47 -6 -121 -25
-165 -41 -149 -54 -359 -181 -498 -300 -52 -44 -57 -46 -90 -37 -52 14 -177 3
-241 -22 -90 -34 -126 -74 -257 -283 -66 -106 -125 -206 -131 -221 -16 -41
-13 -145 5 -206 12 -40 13 -66 6 -112 -5 -32 -5 -59 0 -59 4 0 8 14 8 30 0 17
4 30 8 30 10 0 10 -126 -1 -136 -7 -7 -9 2 -10 44 0 12 -4 22 -10 22 -6 0 -8
-35 -4 -98 14 -246 133 -430 389 -598 391 -257 905 -394 1481 -394 369 0 576
51 700 173 66 64 83 117 66 198 -24 109 -172 217 -321 235 -63 7 -93 12 -93
14 0 1 -16 4 -35 6 -65 7 -85 11 -102 18 -19 9 -408 1 -478 -9 -98 -15 -353
-6 -575 20 -60 7 -116 10 -122 8 -7 -3 -13 -1 -13 5 0 6 -9 8 -20 5 -12 -3
-20 0 -20 7 0 7 -8 9 -20 5 -12 -4 -20 -2 -20 5 0 7 -8 9 -20 5 -12 -4 -20 -2
-20 5 0 7 -8 9 -21 5 -14 -5 -19 -3 -15 3 4 6 -17 19 -49 31 -99 37 -155 71
-216 130 -33 31 -62 68 -65 81 -9 43 -15 146 -7 128 7 -14 11 -14 25 -4 10 7
15 16 11 19 -3 4 5 7 18 7 17 0 20 3 11 9 -10 6 -8 10 10 14 40 10 121 94 162
168 10 19 60 106 110 194 l91 160 0 80 c-1 86 -25 157 -68 203 l-22 24 30 24
c70 57 233 159 318 199 111 52 199 82 290 97 61 10 69 9 88 -8 21 -18 21 -18
38 2 11 14 33 23 68 27 l52 6 5 -32 c3 -18 10 -66 17 -107 34 -222 142 -444
324 -665 128 -155 247 -266 371 -346 35 -23 64 -44 64 -47 0 -2 -12 4 -27 14
-25 15 -26 16 -14 1 8 -10 33 -22 57 -28 24 -6 41 -16 38 -21 -4 -6 -10 -6
-17 1 -6 6 -16 11 -22 11 -11 -1 24 -24 40 -26 6 0 16 -2 23 -2 7 -1 11 -6 8
-10 -2 -4 19 -18 49 -31 30 -13 56 -29 58 -35 3 -7 23 -12 52 -11 25 1 41 -1
34 -5 -19 -13 94 -40 204 -50 172 -16 356 -12 510 11 78 11 151 24 162 29 34
15 88 24 130 23 34 -2 36 -1 15 6 -22 8 -19 9 20 11 25 1 71 1 103 0 35 -1 57
3 57 9 0 6 -5 11 -12 11 -30 0 4 9 57 15 33 4 77 15 97 25 21 10 60 21 88 25
27 4 79 17 115 30 37 12 76 21 88 18 18 -4 20 -3 7 7 -12 9 -10 10 13 6 15 -4
27 -2 27 3 0 4 19 11 43 15 23 3 60 10 82 15 l40 9 -49 1 c-63 1 -53 13 11 13
26 -1 59 6 73 14 23 14 13 13 -27 -3 -10 -4 -14 -2 -10 4 4 6 28 16 54 23 45
13 130 46 180 72 11 5 27 7 34 3 8 -5 10 -4 5 3 -4 7 12 21 41 36 119 60 248
177 324 293 167 256 207 671 93 966 -42 109 -71 161 -150 262 -181 234 -409
423 -644 533 -131 62 -201 86 -326 111 -195 39 -302 45 -519 31z m-1985 -984
c0 -3 -27 -31 -60 -64 -33 -32 -60 -54 -60 -49 0 17 41 76 67 97 23 18 53 27
53 16z m-10 -120 c0 -30 -3 -34 -30 -38 -16 -3 -30 -1 -30 3 0 8 49 69 56 69
2 0 4 -15 4 -34z m-248 -112 c-41 -7 -108 -25 -150 -39 -116 -40 -109 -38 -92
-26 44 32 216 79 285 79 17 0 -3 -6 -43 -14z m-1095 -680 c-3 -3 -12 -4 -19
-1 -8 3 -5 6 6 6 11 1 17 -2 13 -5z m91 -246 c-6 -17 -42 -26 -110 -27 -44 -1
-58 2 -58 13 0 17 24 23 108 25 46 1 63 -2 60 -11z m3760 -15 c-4 -22 -38 -30
-38 -10 0 14 13 24 33 26 5 1 7 -7 5 -16z m-3801 -118 c0 -9 -9 -14 -24 -13
-22 2 -23 4 -7 15 23 17 31 16 31 -2z m46 -17 c7 -19 -11 -60 -23 -53 -7 4 -7
13 0 26 6 11 8 24 5 29 -3 6 -2 10 3 10 6 0 12 -6 15 -12z m-308 -109 c-4 -5
-3 -9 2 -9 4 0 8 -25 9 -55 1 -88 -27 -67 -31 23 -2 52 2 65 16 56 5 -3 7 -10
4 -15z m64 -36 c5 -10 9 -35 9 -55 0 -20 3 -41 7 -47 3 -6 2 -11 -4 -11 -14 0
-24 19 -27 49 -1 14 -3 26 -4 26 -1 0 -3 12 -4 28 -3 31 9 36 23 10z m3944
-20 c-7 -2 -21 -2 -30 0 -10 3 -4 5 12 5 17 0 24 -2 18 -5z m-3773 -133 c19
-33 38 -60 43 -60 11 0 8 -20 -3 -20 -17 0 -62 49 -55 60 3 6 2 10 -4 10 -6 0
-13 11 -17 25 -3 14 -10 25 -16 25 -5 0 -6 5 -3 10 11 18 20 10 55 -50z m-101
-30 c1 -26 -16 10 -23 50 l-6 35 14 -35 c8 -19 15 -42 15 -50z m38 -3 c-1 -1
8 -13 20 -26 12 -13 20 -28 17 -33 -12 -19 -74 87 -73 124 0 18 5 13 19 -20
11 -23 18 -43 17 -45z m124 41 c12 -18 34 -45 47 -60 15 -16 20 -28 13 -28
-11 0 -41 28 -78 74 -15 18 -23 46 -13 46 5 0 19 -15 31 -32z m-138 -100 c9
-21 14 -38 12 -38 -7 0 -35 58 -35 71 0 18 6 9 23 -33z m52 -87 c15 -23 24
-45 19 -52 -4 -8 -3 -9 5 -5 7 5 33 -9 64 -32 145 -110 350 -183 647 -229 90
-14 176 -18 400 -18 157 0 258 -3 225 -6 -33 -3 53 -6 190 -6 138 0 273 -3
300 -7 55 -8 171 -34 195 -43 8 -3 21 -5 28 -4 6 1 12 -3 12 -8 0 -6 8 -8 18
-4 9 3 14 3 10 -2 -4 -4 0 -14 10 -22 16 -12 16 -14 -6 -32 -59 -51 -256 -91
-467 -96 -336 -7 -721 48 -994 141 -134 47 -313 122 -335 142 -11 11 -34 27
-51 36 -40 22 -69 40 -75 47 -11 12 -116 85 -142 98 -31 16 -113 99 -105 107
3 3 16 -6 30 -20 29 -29 48 -36 25 -8 -17 19 -41 62 -35 62 2 0 17 -18 32 -39z
m-170 5 c8 -7 11 -16 8 -20 -4 -3 -1 -6 5 -6 7 0 12 -7 12 -15 0 -8 -7 -15
-17 -15 -9 0 -14 3 -10 6 3 4 0 13 -8 21 -15 14 -21 43 -9 43 3 0 12 -6 19
-14z m83 -5 c12 -10 22 -22 22 -25 0 -12 27 -35 34 -29 3 4 6 -1 6 -9 0 -9 6
-19 13 -21 8 -4 7 -6 -3 -6 -15 -1 -66 42 -104 87 -15 18 -16 22 -4 22 8 0 25
-8 36 -19z m-78 -108 c-1 -10 -39 39 -40 51 0 5 9 -3 20 -17 11 -14 20 -29 20
-34z m40 46 c0 -5 5 -7 10 -4 6 3 10 -1 10 -9 0 -9 5 -16 10 -16 6 0 10 -4 10
-10 0 -5 -4 -10 -10 -10 -13 0 -59 48 -52 54 9 10 22 7 22 -5z m564 -29 c32
-11 61 -19 64 -18 17 4 102 -15 102 -23 0 -13 -19 -21 -31 -13 -7 4 -28 8 -47
10 -20 2 -38 8 -42 14 -4 6 -14 8 -23 4 -10 -3 -17 -1 -17 6 0 7 -8 9 -20 5
-12 -4 -20 -2 -20 5 0 7 -8 9 -20 5 -19 -6 -27 5 -13 18 8 9 1 10 67 -13z
m-124 -40 c0 -5 -4 -10 -9 -10 -6 0 -13 5 -16 10 -3 6 1 10 9 10 9 0 16 -4 16
-10z m40 -10 c0 -5 -4 -10 -9 -10 -6 0 -13 5 -16 10 -3 6 1 10 9 10 9 0 16 -4
16 -10z m88 -16 c37 -9 71 -21 76 -25 14 -12 0 -23 -16 -13 -7 5 -21 7 -30 6
-10 -2 -18 1 -18 6 0 6 -8 8 -19 5 -10 -3 -22 0 -25 6 -4 5 -13 8 -20 5 -7 -3
-16 2 -19 10 -8 20 -11 20 71 0z m855 -19 c1 -5 -18 -11 -43 -11 -25 -1 -45
-3 -45 -4 0 -9 -69 -2 -72 7 -3 8 13 13 49 15 86 5 108 4 111 -7z m635 -1 c17
-4 32 -10 32 -14 0 -9 -97 -7 -106 3 -3 3 -12 3 -19 1 -7 -3 -16 0 -20 6 -5 8
-10 8 -20 0 -8 -7 -15 -7 -19 -1 -3 5 -15 7 -26 4 -12 -3 -20 0 -20 7 0 9 20
11 83 6 45 -3 97 -9 115 -12z m-808 -8 c0 -9 -12 -14 -35 -13 -32 1 -42 7 -31
18 3 2 18 5 35 6 21 1 31 -2 31 -11z m657 -53 c2 -6 -16 -9 -49 -7 -64 3 -60
2 -54 12 7 12 99 7 103 -5z m-627 -6 c0 -16 -67 -20 -77 -4 -4 6 1 8 14 5 12
-3 27 -2 34 3 20 12 29 11 29 -4z m80 -1 c0 -10 -49 -18 -62 -10 -5 3 -6 9 -3
14 6 10 65 7 65 -4z m590 4 c0 -5 -7 -10 -15 -10 -8 0 -15 5 -15 10 0 6 7 10
15 10 8 0 15 -4 15 -10z m70 -6 c0 -8 -10 -12 -27 -10 -38 4 -41 25 -4 24 18
-1 31 -6 31 -14z m-885 -4 c3 -5 1 -10 -4 -10 -6 0 -11 5 -11 10 0 6 2 10 4
10 3 0 8 -4 11 -10z m55 0 c0 -5 -6 -10 -14 -10 -8 0 -18 5 -21 10 -3 6 3 10
14 10 12 0 21 -4 21 -10z m-767 -47 c18 -10 33 -21 35 -25 2 -4 10 -4 18 -1 8
3 14 1 14 -5 0 -8 24 -20 52 -26 14 -2 21 -16 8 -16 -15 0 -171 68 -184 81
-18 16 25 10 57 -8z m-85 -24 c2 -5 12 -9 23 -9 10 0 19 -4 19 -10 0 -5 7 -10
15 -10 8 0 15 -4 15 -10 0 -5 7 -7 15 -4 8 4 15 1 15 -5 0 -6 7 -11 15 -11 8
0 15 -4 15 -10 0 -16 8 -19 -142 48 -41 19 -54 48 -15 36 12 -3 24 -11 25 -15z
m1440 -6 c-21 -2 -57 -2 -80 0 -24 2 -7 4 37 4 44 0 63 -2 43 -4z m-195 -10
c-7 -2 -19 -2 -25 0 -7 3 -2 5 12 5 14 0 19 -2 13 -5z m-1333 -13 c0 -5 -2
-10 -4 -10 -3 0 -8 5 -11 10 -3 6 -1 10 4 10 6 0 11 -4 11 -10z m30 -10 c0 -5
-4 -10 -10 -10 -5 0 -10 5 -10 10 0 6 5 10 10 10 6 0 10 -4 10 -10z m2060 -6
c0 -33 -38 -85 -62 -83 -9 0 -9 2 -1 5 8 4 9 15 2 37 -11 40 -11 40 1 32 6 -3
10 -16 10 -28 1 -21 1 -21 15 -4 7 11 12 27 10 38 -2 12 2 19 11 19 8 0 14 -7
14 -16z m63 0 c17 -17 -68 -124 -100 -124 -21 0 -15 16 12 30 14 7 25 20 25
27 0 8 4 12 9 8 12 -7 25 31 15 46 -4 8 -3 9 4 5 7 -4 12 -2 12 3 0 12 13 15
23 5z m-2093 -14 c0 -5 -2 -10 -4 -10 -3 0 -8 5 -11 10 -3 6 -1 10 4 10 6 0
11 -4 11 -10z m51 -20 c5 0 9 -4 9 -9 0 -12 -38 -2 -47 12 -4 7 0 8 11 4 10
-4 22 -7 27 -7z m44 -30 c3 -5 1 -10 -4 -10 -6 0 -11 5 -11 10 0 6 2 10 4 10
3 0 8 -4 11 -10z m2039 1 c8 -13 -54 -91 -72 -91 -6 0 -13 -7 -16 -16 -4 -9
-9 -14 -13 -10 -3 3 -14 -1 -24 -10 -11 -10 -19 -12 -24 -5 -8 13 3 33 15 26
4 -3 11 2 14 11 3 8 10 12 16 9 6 -3 13 1 16 9 3 9 10 16 16 16 13 0 38 26 38
39 0 6 6 11 13 11 8 0 7 4 -3 10 -13 8 -13 10 2 10 9 0 19 -4 22 -9z m-1479
-71 c4 -6 10 -8 14 -6 4 3 36 -2 72 -10 35 -8 76 -16 92 -16 15 -1 27 -5 27
-10 0 -11 -59 -4 -162 18 -43 9 -75 21 -72 25 7 12 21 11 29 -1z m-81 -39 c3
-5 15 -7 26 -4 14 4 20 0 20 -12 0 -13 -6 -16 -22 -11 -13 3 -29 6 -35 6 -7 0
-13 7 -13 15 0 16 16 20 24 6z m91 -21 c3 -5 12 -7 19 -4 17 6 31 -12 16 -21
-5 -3 -16 -3 -22 2 -7 4 -19 8 -27 8 -19 0 -27 25 -7 25 8 0 17 -4 21 -10z
m105 -18 c7 2 14 -2 17 -8 2 -8 -7 -11 -27 -9 -35 2 -45 9 -35 25 5 8 10 8 20
0 7 -6 18 -9 25 -8z m1315 8 c-3 -5 -11 -10 -16 -10 -6 0 -7 5 -4 10 3 6 11
10 16 10 6 0 7 -4 4 -10z m-1580 -20 c3 -5 1 -10 -4 -10 -6 0 -11 5 -11 10 0
6 2 10 4 10 3 0 8 -4 11 -10z m1034 0 c-37 -11 -229 -13 -229 -2 0 5 57 9 128
9 75 1 116 -2 101 -7z m506 1 c3 -5 1 -12 -5 -16 -5 -3 -10 1 -10 9 0 18 6 21
15 7z m-1500 -11 c3 -5 -1 -10 -10 -10 -9 0 -13 5 -10 10 3 6 8 10 10 10 2 0
7 -4 10 -10z m45 -10 c0 -5 -4 -10 -10 -10 -5 0 -10 5 -10 10 0 6 5 10 10 10
6 0 10 -4 10 -10z m1414 1 c3 -5 -1 -11 -9 -14 -9 -4 -12 -1 -8 9 6 16 10 17
17 5z m-1369 -11 c3 -5 2 -10 -4 -10 -5 0 -13 5 -16 10 -3 6 -2 10 4 10 5 0
13 -4 16 -10z m40 -10 c3 -5 2 -10 -4 -10 -5 0 -13 5 -16 10 -3 6 -2 10 4 10
5 0 13 -4 16 -10z m1290 0 c3 -5 1 -10 -4 -10 -6 0 -11 5 -11 10 0 6 2 10 4
10 3 0 8 -4 11 -10z m-638 -16 c2 -7 -11 -13 -32 -16 -35 -4 -51 4 -42 20 8
11 70 8 74 -4z m49 5 c5 -8 9 -8 14 1 4 7 13 9 19 6 22 -14 10 -25 -29 -24
-38 0 -48 7 -33 21 10 10 21 8 29 -4z m124 -3 c0 -10 -49 -18 -62 -10 -5 3 -6
9 -3 14 6 10 65 7 65 -4z m-245 -66 c3 -5 2 -10 -4 -10 -5 0 -13 5 -16 10 -3
6 -2 10 4 10 5 0 13 -4 16 -10z m50 0 c3 -5 2 -10 -4 -10 -5 0 -13 5 -16 10
-3 6 -2 10 4 10 5 0 13 -4 16 -10z m50 0 c3 -5 -1 -10 -9 -10 -9 0 -16 5 -16
10 0 6 4 10 9 10 6 0 13 -4 16 -10z m45 0 c0 -5 -4 -10 -10 -10 -5 0 -10 5
-10 10 0 6 5 10 10 10 6 0 10 -4 10 -10z m40 0 c0 -5 -2 -10 -4 -10 -3 0 -8 5
-11 10 -3 6 -1 10 4 10 6 0 11 -4 11 -10z"/>
<path d="M830 1710 c0 -5 5 -10 11 -10 5 0 7 5 4 10 -3 6 -8 10 -11 10 -2 0
-4 -4 -4 -10z"/>
<path d="M1813 1423 c15 -2 39 -2 55 0 15 2 2 4 -28 4 -30 0 -43 -2 -27 -4z"/>
<path d="M1943 1423 c20 -2 54 -2 75 0 20 2 3 4 -38 4 -41 0 -58 -2 -37 -4z"/>
<path d="M5100 2210 c-9 -6 -10 -10 -3 -10 6 0 15 5 18 10 8 12 4 12 -15 0z"/>
<path d="M4150 1970 c-9 -6 -10 -10 -3 -10 6 0 15 5 18 10 8 12 4 12 -15 0z"/>
</g>
</svg>
